<?xml version="1.0" standalone="no"?><!DOCTYPE svg PUBLIC "-//W3C//DTD SVG 1.1//EN" "http://www.w3.org/Graphics/SVG/1.1/DTD/svg11.dtd"><svg t="1574089925759" class="icon" viewBox="0 0 1024 1024" version="1.1" xmlns="http://www.w3.org/2000/svg" p-id="1501" xmlns:xlink="http://www.w3.org/1999/xlink" width="200" height="200"><defs><style type="text/css"></style></defs><path d="M933.4 39.2l28.1 51.5 51.5 28.1-51.5 28.2-28.1 51.5-28.2-51.5-51.5-28.2 51.5-28.1z" fill="#FFFFFF" p-id="1502"></path><path d="M933.4 208.5c-3.7 0-7-2-8.8-5.2l-26.8-48.9-48.9-26.8c-3.2-1.8-5.2-5.1-5.2-8.8s2-7 5.2-8.8l48.9-26.8 26.8-48.9c1.8-3.2 5.1-5.2 8.8-5.2s7 2 8.8 5.2L969 83.2l48.9 26.8c3.2 1.8 5.2 5.1 5.2 8.8s-2 7-5.2 8.8L969 154.4l-26.8 48.9c-1.8 3.2-5.2 5.2-8.8 5.2z m-58.8-89.7l35.4 19.4c1.7 0.9 3.1 2.3 4 4l19.4 35.4 19.4-35.4c0.9-1.7 2.3-3.1 4-4l35.4-19.4-35.4-19.4c-1.7-0.9-3.1-2.3-4-4L933.4 60 914 95.5c-0.9 1.7-2.3 3.1-4 4l-35.4 19.3z" fill="#231815" p-id="1503"></path><path d="M119 643.4l38.1 69.8 69.8 38.2-69.8 38.1-38.1 69.9-38.2-69.9L11 751.4l69.8-38.2z" fill="#FFFFFF" p-id="1504"></path><path d="M119 869.4c-3.7 0-7-2-8.8-5.2L73.4 797 6.2 760.1C3 758.4 1 755 1 751.4s2-7 5.2-8.8l67.2-36.8 36.8-67.2c1.8-3.2 5.1-5.2 8.8-5.2s7 2 8.8 5.2l36.8 67.2 67.2 36.8c3.2 1.8 5.2 5.1 5.2 8.8s-2 7-5.2 8.8L164.6 797l-36.8 67.2c-1.8 3.2-5.2 5.2-8.8 5.2z m-87.2-118l53.8 29.4c1.7 0.9 3.1 2.3 4 4l29.4 53.8 29.4-53.8c0.9-1.7 2.3-3.1 4-4l53.8-29.4-53.9-29.4c-1.7-0.9-3.1-2.3-4-4L119 664.2 89.6 718c-0.9 1.7-2.3 3.1-4 4l-53.8 29.4z" fill="#231815" p-id="1505"></path><path d="M532.2 451.2m-409.4 0a409.4 409.4 0 1 0 818.8 0 409.4 409.4 0 1 0-818.8 0Z" fill="#F2CF3D" p-id="1506"></path><path d="M532.2 870.5c-56.6 0-111.5-11.1-163.2-33-49.9-21.1-94.8-51.4-133.3-89.9s-68.7-83.4-89.9-133.3c-21.9-51.7-33-106.6-33-163.2s11.1-111.5 33-163.2c21.1-49.9 51.4-94.8 89.9-133.3S319 85.9 369 64.8c51.7-21.9 106.6-33 163.2-33 56.6 0 111.5 11.1 163.2 33 49.9 21.1 94.8 51.4 133.3 89.9s68.7 83.4 89.9 133.3c21.9 51.7 33 106.6 33 163.2s-11.1 111.5-33 163.2c-21.1 49.9-51.4 94.8-89.9 133.3s-83.4 68.7-133.3 89.9c-51.7 21.8-106.6 32.9-163.2 32.9z m0-818.7c-53.9 0-106.2 10.6-155.4 31.4-47.6 20.1-90.3 48.9-126.9 85.6-36.7 36.7-65.5 79.4-85.6 126.9-20.8 49.2-31.4 101.5-31.4 155.4s10.6 106.2 31.4 155.4c20.1 47.6 48.9 90.3 85.6 126.9 36.7 36.7 79.4 65.5 126.9 85.6 49.2 20.8 101.5 31.4 155.4 31.4s106.2-10.6 155.4-31.4c47.6-20.1 90.3-48.9 126.9-85.6 36.7-36.7 65.5-79.4 85.6-126.9 20.8-49.2 31.4-101.5 31.4-155.4S921 344.9 900.2 295.7c-20.1-47.6-48.9-90.3-85.6-126.9-36.7-36.7-79.4-65.5-126.9-85.6-49.3-20.8-101.6-31.4-155.5-31.4z" fill="#231815" p-id="1507"></path><path d="M532.2 418.3m-376.5 0a376.5 376.5 0 1 0 753 0 376.5 376.5 0 1 0-753 0Z" fill="#FFE20D" p-id="1508"></path><path d="M532.2 870.5c-56.6 0-111.5-11.1-163.2-33-49.9-21.1-94.8-51.4-133.3-89.9s-68.7-83.4-89.9-133.3c-21.9-51.7-33-106.6-33-163.2s11.1-111.5 33-163.2c21.1-49.9 51.4-94.8 89.9-133.3S319 85.9 369 64.8c51.7-21.9 106.6-33 163.2-33 56.6 0 111.5 11.1 163.2 33 49.9 21.1 94.8 51.4 133.3 89.9s68.7 83.4 89.9 133.3c21.9 51.7 33 106.6 33 163.2s-11.1 111.5-33 163.2c-21.1 49.9-51.4 94.8-89.9 133.3s-83.4 68.7-133.3 89.9c-51.7 21.8-106.6 32.9-163.2 32.9z m0-818.7c-53.9 0-106.2 10.6-155.4 31.4-47.6 20.1-90.3 48.9-126.9 85.6-36.7 36.7-65.5 79.4-85.6 126.9-20.8 49.2-31.4 101.5-31.4 155.4s10.6 106.2 31.4 155.4c20.1 47.6 48.9 90.3 85.6 126.9 36.7 36.7 79.4 65.5 126.9 85.6 49.2 20.8 101.5 31.4 155.4 31.4s106.2-10.6 155.4-31.4c47.6-20.1 90.3-48.9 126.9-85.6 36.7-36.7 65.5-79.4 85.6-126.9 20.8-49.2 31.4-101.5 31.4-155.4S921 344.9 900.2 295.7c-20.1-47.6-48.9-90.3-85.6-126.9-36.7-36.7-79.4-65.5-126.9-85.6-49.3-20.8-101.6-31.4-155.5-31.4z" fill="#231815" p-id="1509"></path><path d="M402.2 140.3a130 42.1 0 1 0 260 0 130 42.1 0 1 0-260 0Z" fill="#FFF0B3" p-id="1510"></path><path d="M259.4 552.7a48.5 30 0 1 0 97 0 48.5 30 0 1 0-97 0Z" fill="#FFA178" p-id="1511"></path><path d="M708 552.7a48.5 30 0 1 0 97 0 48.5 30 0 1 0-97 0Z" fill="#FFA178" p-id="1512"></path><path d="M214.5 951.7a319.6 32.7 0 1 0 639.2 0 319.6 32.7 0 1 0-639.2 0Z" fill="#E5E5E5" p-id="1513"></path><path d="M532.2 703.2c-48.7 0-94.9-19.9-123.8-53.3-3.6-4.2-3.2-10.5 1-14.1 4.2-3.6 10.5-3.2 14.1 1 25.1 29 65.7 46.4 108.7 46.4 42.9 0 83.6-17.3 108.7-46.4 3.6-4.2 9.9-4.6 14.1-1 4.2 3.6 4.6 9.9 1 14.1-28.8 33.4-75.1 53.3-123.8 53.3z" fill="#231815" p-id="1514"></path><path d="M368.6 488.9H231.9c-60.3 0-109.1-48.9-109.1-109.1v-83.2c0-38.3 31-69.3 69.3-69.3h212c40.6 0 73.6 32.9 73.6 73.6v79c0 59.9-49.1 109-109.1 109z" fill="#969899" p-id="1515"></path><path d="M368.6 498.9H231.9c-65.7 0-119.1-53.4-119.1-119.1v-83.2c0-43.7 35.6-79.3 79.3-79.3h212c46.1 0 83.6 37.5 83.6 83.6v79c0 65.5-53.5 119-119.1 119zM192.2 237.2c-32.7 0-59.3 26.6-59.3 59.3v83.2c0 54.7 44.5 99.1 99.1 99.1h136.6c54.7 0 99.1-44.5 99.1-99.1v-79c0-35-28.5-63.6-63.6-63.6H192.2z" fill="#231815" p-id="1516"></path><path d="M406.4 227.4L188.3 475c16.1 8.7 34.2 13.9 53.5 13.9h116.9c65.7 0 119-58.5 119-122.2V300c0-39-31.6-70.7-71.3-72.6z" fill="#778087" p-id="1517"></path><path d="M375.3 498.9H225.2c-62 0-112.4-50.4-112.4-112.4v-82.7c0-47.7 38.8-86.6 86.6-86.6h201.7c47.7 0 86.6 38.8 86.6 86.6v82.7c0 62-50.4 112.4-112.4 112.4zM199.4 237.2c-36.7 0-66.6 29.9-66.6 66.6v82.7c0 50.9 41.4 92.4 92.4 92.4h150.1c50.9 0 92.4-41.4 92.4-92.4v-82.7c0-36.7-29.9-66.6-66.6-66.6H199.4z" fill="#231815" p-id="1518"></path><path d="M839.2 488.9H695.8c-60.2 0-109.1-48.8-109.1-109.1v-77.5c0-41.5 33.6-75.1 75.1-75.1h210.4c38.3 0 69.4 31.1 69.4 69.4v89.9c0 56.3-46.1 102.4-102.4 102.4z" fill="#969899" p-id="1519"></path><path d="M839.2 498.9H695.8c-65.7 0-119.1-53.4-119.1-119.1v-77.5c0-46.9 38.2-85.1 85.1-85.1h210.4c43.8 0 79.4 35.6 79.4 79.4v89.9c0 62-50.5 112.4-112.4 112.4zM661.8 237.2c-35.9 0-65.1 29.2-65.1 65.1v77.5c0 54.6 44.4 99.1 99.1 99.1h143.4c50.9 0 92.4-41.4 92.4-92.4v-89.9c0-32.7-26.6-59.4-59.4-59.4H661.8z" fill="#231815" p-id="1520"></path><path d="M870.3 227.4L652.2 475c16.1 8.7 34.2 13.9 53.5 13.9h116.9c65.7 0 119-58.5 119-122.2V300c0-39-31.6-70.7-71.3-72.6z" fill="#778087" p-id="1521"></path><path d="M832.4 498.9H695.8c-65.7 0-119.1-53.4-119.1-119.1v-76c0-47.7 38.8-86.6 86.6-86.6H865c47.7 0 86.6 38.8 86.6 86.6v76c0 65.6-53.5 119.1-119.2 119.1zM663.3 237.2c-36.7 0-66.6 29.9-66.6 66.6v76c0 54.7 44.5 99.1 99.1 99.1h136.6c54.7 0 99.1-44.5 99.1-99.1v-76c0-36.7-29.9-66.6-66.6-66.6H663.3z" fill="#231815" p-id="1522"></path><path d="M477.2 282.7c-1.6 0-3.2-0.4-4.7-1.2-4.9-2.6-6.7-8.7-4.1-13.5 12.7-23.6 37.1-38.3 63.8-38.3 26.5 0 50.8 14.5 63.6 37.9 2.6 4.8 0.9 10.9-4 13.6-4.8 2.6-10.9 0.9-13.6-4-9.2-16.9-26.9-27.5-46-27.5-19.3 0-36.9 10.6-46.1 27.7-1.9 3.4-5.3 5.3-8.9 5.3z" fill="#231815" p-id="1523"></path></svg>